# xmcd
#
# Track frame offsets: 
#        150
#        18149
#        37446
#        55287
#        75728
#        92830
#        112515
#        132664
#        148072
#        169749
#        188316
#        203395
#        220676
#        243520
#        261747
#        284465
#        301567
#        317094
#
# Disc length: 4504 seconds
#
# Revision: 0
# Processed by: cddbd v1.5.1PL0 Copyright (c) Steve Scherf et al.
# Submitted via: ExactAudioCopy v0.95b2
#
DISCID=fa119612
DTITLE=Комиссар - Все Хиты Диско
DYEAR=1900
DGENRE=
TTITLE0=Нежный Мотив
TTITLE1=Я Тебе Объявляю Войну
TTITLE2=Любовь - Это Яд
TTITLE3=Королева Снежная
TTITLE4=Наше Время Пришло
TTITLE5=Дисбат
TTITLE6=Падла
TTITLE7=Вкус Огня
TTITLE8=Дрянь
TTITLE9=Адреналин
TTITLE10=Ангел
TTITLE11=Скорость
TTITLE12=Не Обижайся
TTITLE13=Наташка
TTITLE14=Ты Уйдёшь
TTITLE15=Твой Поцелуй
TTITLE16=Восточная
TTITLE17=Песня Зовёт
EXTD=
EXTT0=
EXTT1=
EXTT2=
EXTT3=
EXTT4=
EXTT5=
EXTT6=
EXTT7=
EXTT8=
EXTT9=
EXTT10=
EXTT11=
EXTT12=
EXTT13=
EXTT14=
EXTT15=
EXTT16=
EXTT17=
PLAYORDER=
